<svg xmlns="http://www.w3.org/2000/svg" width="87.804" height="87.804" viewBox="0 0 87.804 87.804"><path d="M43.9,0A44.283,44.283,0,0,0,0,43.9,44.283,44.283,0,0,0,43.9,87.8,44.283,44.283,0,0,0,87.8,43.9,44.283,44.283,0,0,0,43.9,0ZM16.618,71.186a38.134,38.134,0,0,1-1.76-52.69l6.7,6.7C13.608,30.661,9.846,40.239,10.4,48.863c.668,10.326,7.328,18.19,18.064,18.19H49.047a2.572,2.572,0,0,0,0-5.145H28.468c-4.945,0-8.259-2.136-10.3-5.145H53.126L69.308,72.946A38.135,38.135,0,0,1,16.618,71.186ZM56.8,31.679a5.145,5.145,0,1,1,8.243,3.439,2.574,2.574,0,0,0,.079,4.133,17.059,17.059,0,0,1,6.932,12.368h-16.8L30.348,26.71a21.949,21.949,0,0,1,3.153-.645A20.562,20.562,0,0,1,52.244,33.6,2.575,2.575,0,0,0,56.8,31.679Zm-8.822,19.94H44.318a10.219,10.219,0,0,0,1.065-2.6ZM32.547,36.185H28.468a2.572,2.572,0,0,0,0,5.145h6.945a5.145,5.145,0,0,1,0,10.289H15.988a19.224,19.224,0,0,1-.45-3.088c-.469-7.243,2.823-15.319,9.751-19.6Zm40.4,33.123L60.4,56.764H74.77a2.573,2.573,0,0,0,2.572-2.572c0-7.009-2.456-13.04-6.975-17.283A10.292,10.292,0,1,0,52.6,26.66a25.714,25.714,0,0,0-19.751-5.7,26.7,26.7,0,0,0-6.554,1.695l-7.8-7.8a38.129,38.129,0,0,1,52.69,1.76A38.134,38.134,0,0,1,72.946,69.308Z" fill="#cacab4"/><g transform="translate(58.967 43.173)"><g transform="translate(0 0)"><circle cx="2.5" cy="2.5" r="2.5" transform="translate(-0.164 -0.173)" fill="#cacab4"/></g></g></svg>