<svg xmlns="http://www.w3.org/2000/svg" width="102.232" height="102.231" viewBox="0 0 102.232 102.231"><path d="M100.5,19.534a1.734,1.734,0,0,0,1.732-1.732V7.245A1.734,1.734,0,0,0,100.5,5.513H96.718V1.732A1.734,1.734,0,0,0,94.986,0H84.429A1.734,1.734,0,0,0,82.7,1.732V5.513H74.666V1.732A1.734,1.734,0,0,0,72.933,0H67.89a1.734,1.734,0,0,0-1.732,1.732V5.513H58.126V1.732A1.734,1.734,0,0,0,56.394,0H1.732A1.734,1.734,0,0,0,0,1.732V94.986a1.734,1.734,0,0,0,1.732,1.732H5.513V100.5a1.734,1.734,0,0,0,1.732,1.732H17.8a1.734,1.734,0,0,0,1.732-1.732V96.718h8.031V100.5a1.734,1.734,0,0,0,1.732,1.732h5.044a1.734,1.734,0,0,0,1.732-1.732V96.718h8.031V100.5a1.734,1.734,0,0,0,1.732,1.732H56.395a1.734,1.734,0,0,0,1.732-1.732V96.718h8.031V100.5a1.734,1.734,0,0,0,1.732,1.732h5.044a1.734,1.734,0,0,0,1.732-1.732V96.718H82.7V100.5a1.734,1.734,0,0,0,1.732,1.732H94.987a1.734,1.734,0,0,0,1.732-1.732V96.718H100.5a1.734,1.734,0,0,0,1.732-1.732V84.429A1.734,1.734,0,0,0,100.5,82.7H96.719V71.909H100.5a1.734,1.734,0,0,0,1.732-1.732V65.133A1.734,1.734,0,0,0,100.5,63.4H96.719V19.534Zm-1.263-3H96.718V8.508h2.518ZM74.666,11.026V8.508H82.7v2.518ZM69.153,3h2.518v8.031H69.153ZM58.126,11.026V8.508h8.031v2.518Zm-3,0H52.613V3h2.518Zm-5.513,0H26.828a1.5,1.5,0,1,0,0,3h22.79v35.6h-35.6v-35.6h5.818a1.5,1.5,0,1,0,0-3H14.022V3h35.6ZM3,88.21v-35.6h8.031v35.6Zm8.031-38.592H3v-35.6h8.031ZM11.026,3v8.031H3V3ZM3,93.723V91.205H5.513v2.518Zm13.544,5.513H8.508V91.205h8.031Zm3-5.513V91.205h.022a1.5,1.5,0,0,0,0-3H14.022v-35.6h35.6v35.6H26.545a1.5,1.5,0,0,0,0,3h1.02v2.518Zm13.544,5.513H30.561V91.205h2.518Zm3-5.513V91.205h8.031v2.518Zm19.057,5.513H47.1V91.205h4.016a1.5,1.5,0,0,0,1.5-1.5V52.613h2.518ZM66.158,52.613V63.4H58.126V52.613Zm0,16.3H58.126V66.4h8.031Zm-8.031,3h8.031V82.7H58.126Zm0,21.814V85.692h8.031v8.031Zm13.544,5.513H69.153V52.613h2.518ZM82.7,52.613V63.4H74.666V52.613Zm0,16.3H74.666V66.4H82.7Zm-8.031,3H82.7V82.7H74.666Zm0,21.814V85.692H82.7v8.031Zm19.058,5.513H85.692V52.613h4.016a1.5,1.5,0,0,0,1.5-1.5V25.294a1.5,1.5,0,1,0-3,0V49.618h-35.6v-35.6h35.6v4.284a1.5,1.5,0,1,0,3,0V12.524a1.5,1.5,0,0,0-1.5-1.5H85.692V3h8.031Zm5.513-13.544v8.031H96.718V85.692Zm0-19.3v2.518H96.718V66.4Z" transform="translate(0 0)" fill="#cacab4"/><ellipse cx="1.498" cy="1.498" rx="1.498" ry="1.498" transform="translate(24.809 44.097)" fill="#cacab4"/><ellipse cx="1.498" cy="1.498" rx="1.498" ry="1.498" transform="translate(35.835 44.097)" fill="#cacab4"/><ellipse cx="1.498" cy="1.498" rx="1.498" ry="1.498" transform="translate(35.835 55.139)" fill="#cacab4"/><ellipse cx="1.498" cy="1.498" rx="1.498" ry="1.498" transform="translate(24.809 55.139)" fill="#cacab4"/><ellipse cx="1.498" cy="1.498" rx="1.498" ry="1.498" transform="translate(44.097 74.427)" fill="#cacab4"/><ellipse cx="1.498" cy="1.498" rx="1.498" ry="1.498" transform="translate(44.097 63.401)" fill="#cacab4"/><ellipse cx="1.498" cy="1.498" rx="1.498" ry="1.498" transform="translate(16.547 63.401)" fill="#cacab4"/><ellipse cx="1.498" cy="1.498" rx="1.498" ry="1.498" transform="translate(16.547 74.427)" fill="#cacab4"/><ellipse cx="1.498" cy="1.498" rx="1.498" ry="1.498" transform="translate(24.809 82.689)" fill="#cacab4"/><ellipse cx="1.498" cy="1.498" rx="1.498" ry="1.498" transform="translate(35.835 82.689)" fill="#cacab4"/><ellipse cx="1.498" cy="1.498" rx="1.498" ry="1.498" transform="translate(44.097 35.835)" fill="#cacab4"/><ellipse cx="1.498" cy="1.498" rx="1.498" ry="1.498" transform="translate(44.097 24.809)" fill="#cacab4"/><ellipse cx="1.498" cy="1.498" rx="1.498" ry="1.498" transform="translate(35.835 16.547)" fill="#cacab4"/><ellipse cx="1.498" cy="1.498" rx="1.498" ry="1.498" transform="translate(24.809 16.547)" fill="#cacab4"/><ellipse cx="1.498" cy="1.498" rx="1.498" ry="1.498" transform="translate(16.547 24.809)" fill="#cacab4"/><ellipse cx="1.498" cy="1.498" rx="1.498" ry="1.498" transform="translate(16.547 35.835)" fill="#cacab4"/><ellipse cx="1.498" cy="1.498" rx="1.498" ry="1.498" transform="translate(5.506 63.401)" fill="#cacab4"/><ellipse cx="1.498" cy="1.498" rx="1.498" ry="1.498" transform="translate(5.506 74.427)" fill="#cacab4"/><ellipse cx="1.498" cy="1.498" rx="1.498" ry="1.498" transform="translate(74.427 44.097)" fill="#cacab4"/><ellipse cx="1.498" cy="1.498" rx="1.498" ry="1.498" transform="translate(63.401 44.097)" fill="#cacab4"/><ellipse cx="1.498" cy="1.498" rx="1.498" ry="1.498" transform="translate(55.139 35.835)" fill="#cacab4"/><ellipse cx="1.498" cy="1.498" rx="1.498" ry="1.498" transform="translate(55.139 24.809)" fill="#cacab4"/><ellipse cx="1.498" cy="1.498" rx="1.498" ry="1.498" transform="translate(35.835 5.506)" fill="#cacab4"/><ellipse cx="1.498" cy="1.498" rx="1.498" ry="1.498" transform="translate(24.809 5.506)" fill="#cacab4"/><ellipse cx="1.498" cy="1.498" rx="1.498" ry="1.498" transform="translate(5.506 24.809)" fill="#cacab4"/><ellipse cx="1.498" cy="1.498" rx="1.498" ry="1.498" transform="translate(5.506 35.835)" fill="#cacab4"/></svg>