<svg xmlns="http://www.w3.org/2000/svg" width="81.949" height="81.949" viewBox="0 0 81.949 81.949"><path d="M65.28,336.963H90.89a7.691,7.691,0,0,0,7.683-7.683,1.28,1.28,0,1,0-2.561,0A5.128,5.128,0,0,1,90.89,334.4H65.28a1.28,1.28,0,0,0,0,2.561Z" transform="translate(-53.756 -275.501)" fill="#3fb6b2"/><path d="M120.371,211.148a1.281,1.281,0,0,0,2.525.428.916.916,0,0,1,.418-.516,3.536,3.536,0,0,1,2.439-.461,3.3,3.3,0,0,1,2.268,3.634,1.28,1.28,0,0,0-.01.154c0,2.118-2.3,3.841-5.122,3.841H97.28a1.28,1.28,0,0,0,0,2.561H122.89c4.184,0,7.6-2.8,7.679-6.273a5.839,5.839,0,0,0-4.3-6.425c-2.351-.485-5.492.656-5.9,3.057Z" transform="translate(-80.635 -174.693)" fill="#3fb6b2"/><path d="M53.775,422.273C53.692,418.8,50.281,416,46.1,416H1.28a1.28,1.28,0,0,0,0,2.561H46.1c2.824,0,5.122,1.723,5.122,3.841a1.279,1.279,0,0,0,.01.154,3.3,3.3,0,0,1-2.268,3.634,3.536,3.536,0,0,1-2.439-.461.915.915,0,0,1-.418-.516,1.281,1.281,0,1,0-2.525.428c.352,2.076,2.705,3.163,4.811,3.163C51.81,428.8,54.093,425.65,53.775,422.273Z" transform="translate(0 -349.416)" fill="#3fb6b2"/><path d="M1.28,274.561H11.524a1.28,1.28,0,0,0,0-2.561H1.28a1.28,1.28,0,0,0,0,2.561Z" transform="translate(0 -228.465)" fill="#3fb6b2"/><path d="M65.28,325.122H75.524a3.846,3.846,0,0,0,3.841-3.841,1.28,1.28,0,1,0-2.561,0,1.282,1.282,0,0,1-1.28,1.28H65.28a1.28,1.28,0,0,0,0,2.561Z" transform="translate(-53.756 -268.782)" fill="#3fb6b2"/><path d="M26.89,448H1.28a1.28,1.28,0,0,0,0,2.561H26.89a5.128,5.128,0,0,1,5.122,5.122,1.28,1.28,0,1,0,2.561,0A7.691,7.691,0,0,0,26.89,448Z" transform="translate(0 -376.295)" fill="#3fb6b2"/><path d="M11.524,480H1.28a1.28,1.28,0,0,0,0,2.561H11.524a1.282,1.282,0,0,1,1.28,1.28,1.28,1.28,0,1,0,2.561,0A3.846,3.846,0,0,0,11.524,480Z" transform="translate(0 -403.173)" fill="#3fb6b2"/><path d="M416.013,261.8a7.334,7.334,0,0,0,1.764-4.369c.1-3.489-2.788-5.781-3.876-6.644-4.467-3.546-10.237-2.861-12.511-2.4a1.28,1.28,0,0,0-1,.993c-.469,2.24-1.17,7.926,2.456,12.328.862,1.047,3.128,3.8,6.556,3.8a7.492,7.492,0,0,0,4.683-1.792,15.219,15.219,0,0,1,1.285,6.062,1.28,1.28,0,0,0,2.561.005A17.85,17.85,0,0,0,416.013,261.8Zm-6.5,1.139c-1.941.053-3.458-1.373-4.686-2.864-2.549-3.095-2.415-7.11-2.078-9.329,2.268-.335,6.39-.474,9.564,2.046.889.706,2.971,2.358,2.908,4.565a4.262,4.262,0,0,1-.652,2.066,18.045,18.045,0,0,0-5.025-4.677,1.28,1.28,0,1,0-1.356,2.172,15.413,15.413,0,0,1,4.647,4.5,5.386,5.386,0,0,1-3.322,1.523Z" transform="translate(-335.982 -208.313)" fill="#3fb6b2"/><path d="M360.53,17.5c3.427,0,5.694-2.751,6.556-3.8,3.625-4.4,2.925-10.087,2.456-12.328a1.28,1.28,0,0,0-1-.993c-2.274-.459-8.043-1.143-12.511,2.4-1.087.863-3.976,3.155-3.876,6.644a7.333,7.333,0,0,0,1.764,4.37A17.845,17.845,0,0,0,352,21.777a1.28,1.28,0,0,0,2.561-.005,15.216,15.216,0,0,1,1.285-6.062A7.492,7.492,0,0,0,360.53,17.5ZM357.622,4.793c2.658-2.11,6.247-2.535,9.564-2.046.337,2.219.471,6.234-2.078,9.329-.721.876-2.406,2.928-4.686,2.864a5.383,5.383,0,0,1-3.321-1.523,15.411,15.411,0,0,1,4.647-4.5,1.28,1.28,0,1,0-1.356-2.172,18.044,18.044,0,0,0-5.025,4.677,4.265,4.265,0,0,1-.652-2.067c-.063-2.207,2.018-3.859,2.908-4.565Z" transform="translate(-295.661 -0.007)" fill="#3fb6b2"/><path d="M25.391,22.671c4.26.859,9.033.357,12.511-2.4,1.087-.863,3.975-3.155,3.876-6.644a7.333,7.333,0,0,0-1.764-4.37,17.845,17.845,0,0,0,1.918-7.976,1.28,1.28,0,1,0-2.561.005,15.217,15.217,0,0,1-1.285,6.062A7.494,7.494,0,0,0,33.4,5.553c-3.427,0-5.694,2.751-6.556,3.8-3.625,4.4-2.925,10.087-2.456,12.328A1.281,1.281,0,0,0,25.391,22.671Zm3.432-11.692c.721-.876,2.4-2.922,4.686-2.864A5.383,5.383,0,0,1,36.83,9.638a15.415,15.415,0,0,1-4.647,4.5,1.28,1.28,0,0,0,1.356,2.172,18.044,18.044,0,0,0,5.025-4.677,4.266,4.266,0,0,1,.652,2.067c.063,2.207-2.019,3.859-2.908,4.565-3.174,2.519-7.3,2.38-9.564,2.046C26.408,18.088,26.274,14.073,28.823,10.979Z" transform="translate(-20.163 0)" fill="#3fb6b2"/><ellipse cx="1.281" cy="1.281" rx="1.281" ry="1.281" transform="translate(19.207 34.571)" fill="#3fb6b2"/><ellipse cx="1.281" cy="1.281" rx="1.281" ry="1.281" transform="translate(25.607 10.244)" fill="#3fb6b2"/><ellipse cx="1.281" cy="1.281" rx="1.281" ry="1.281" transform="translate(39.692 19.205)" fill="#3fb6b2"/><ellipse cx="1.281" cy="1.281" rx="1.281" ry="1.281" transform="translate(71.704 29.45)" fill="#3fb6b2"/><ellipse cx="1.281" cy="1.281" rx="1.281" ry="1.281" transform="translate(53.779 61.46)" fill="#3fb6b2"/><ellipse cx="1.281" cy="1.281" rx="1.281" ry="1.281" transform="translate(71.704 79.387)" fill="#3fb6b2"/></svg>