<svg id="luz-de-tungsteno" xmlns="http://www.w3.org/2000/svg" width="60.178" height="56.417" viewBox="0 0 60.178 56.417">
  <path id="Trazado_906297" data-name="Trazado 906297" d="M429.933,226h-7.17a1.763,1.763,0,0,0,0,3.526h7.17a1.763,1.763,0,1,0,0-3.526Z" transform="translate(-371.518 -201.318)" fill="#3fb6b2"/>
  <path id="Trazado_906298" data-name="Trazado 906298" d="M1.763,229.526h7.17a1.763,1.763,0,1,0,0-3.526H1.763a1.763,1.763,0,1,0,0,3.526Z" transform="translate(0 -201.318)" fill="#3fb6b2"/>
  <path id="Trazado_906299" data-name="Trazado 906299" d="M406.28,106.879a1.763,1.763,0,0,0-2.408-.645l-6.107,3.526a1.763,1.763,0,0,0,1.763,3.054l6.107-3.526a1.763,1.763,0,0,0,.645-2.408Z" transform="translate(-350.235 -95.42)" fill="#3fb6b2"/>
  <path id="Trazado_906300" data-name="Trazado 906300" d="M40.141,316.234l-6.107,3.526a1.763,1.763,0,0,0,1.763,3.054l6.107-3.526a1.763,1.763,0,0,0-1.763-3.054Z" transform="translate(-29.255 -280.737)" fill="#3fb6b2"/>
  <path id="Trazado_906301" data-name="Trazado 906301" d="M124.76,382.763l-3.526,6.107a1.763,1.763,0,0,0,3.054,1.763l3.526-6.107a1.763,1.763,0,1,0-3.054-1.763Z" transform="translate(-106.776 -338.878)" fill="#3fb6b2"/>
  <path id="Trazado_906302" data-name="Trazado 906302" d="M241,407.763v7.052a1.763,1.763,0,1,0,3.526,0v-7.052a1.763,1.763,0,0,0-3.526,0Z" transform="translate(-212.674 -360.161)" fill="#3fb6b2"/>
  <path id="Trazado_906303" data-name="Trazado 906303" d="M331.88,382.119a1.763,1.763,0,0,0-.645,2.408l3.526,6.107a1.763,1.763,0,1,0,3.054-1.763l-3.526-6.107A1.763,1.763,0,0,0,331.88,382.119Z" transform="translate(-292.094 -338.878)" fill="#3fb6b2"/>
  <path id="Trazado_906304" data-name="Trazado 906304" d="M41.9,109.759,35.8,106.233a1.763,1.763,0,0,0-1.763,3.054l6.107,3.526a1.763,1.763,0,1,0,1.763-3.054Z" transform="translate(-29.255 -95.419)" fill="#3fb6b2"/>
  <path id="Trazado_906305" data-name="Trazado 906305" d="M397.119,316.879a1.763,1.763,0,0,0,.645,2.408l6.107,3.526a1.763,1.763,0,0,0,1.763-3.054l-6.107-3.526A1.763,1.763,0,0,0,397.119,316.879Z" transform="translate(-350.235 -280.737)" fill="#3fb6b2"/>
  <path id="Trazado_906306" data-name="Trazado 906306" d="M145.682,29.322V17.763A1.763,1.763,0,0,0,143.919,16h-14.1a1.763,1.763,0,0,0-1.763,1.763V29.322a15.867,15.867,0,1,0,17.63,0Zm-3.526-9.8v3.526H131.578V19.526Zm-5.289,35.26a12.355,12.355,0,0,1-12.341-12.341A12.207,12.207,0,0,1,130.7,31.821a1.763,1.763,0,0,0,.876-1.524V26.578H135.1v8.085l-3.01,3.01a1.763,1.763,0,0,0,2.493,2.493l2.279-2.279,2.279,2.279a1.763,1.763,0,0,0,2.493-2.493l-3.01-3.01V26.578h3.526V30.3a1.763,1.763,0,0,0,.876,1.524,12.207,12.207,0,0,1,6.176,10.624A12.355,12.355,0,0,1,136.867,54.786Z" transform="translate(-106.778 -16)" fill="#3fb6b2"/>
</svg>
