<svg id="humedad_1_" data-name="humedad (1)" xmlns="http://www.w3.org/2000/svg" width="64.334" height="64.335" viewBox="0 0 64.334 64.335">
  <g id="Grupo_1106942" data-name="Grupo 1106942" transform="translate(0)">
    <g id="Grupo_1106941" data-name="Grupo 1106941">
      <path id="Trazado_906292" data-name="Trazado 906292" d="M41.11.348a1.337,1.337,0,0,0-1.8,0c-.583.526-13.934,12.728-20.133,26.869a7.1,7.1,0,0,0-2.432-.41,7.262,7.262,0,0,0-4.618,1.58,4.657,4.657,0,0,1-3.088,1.1,4.655,4.655,0,0,1-3.084-1.1,7.253,7.253,0,0,0-4.615-1.581,1.34,1.34,0,1,0,0,2.681,4.655,4.655,0,0,1,3.084,1.1,7.253,7.253,0,0,0,4.615,1.581,7.266,7.266,0,0,0,4.619-1.581,4.887,4.887,0,0,1,6.178,0,7.546,7.546,0,0,0,9.241,0,4.662,4.662,0,0,1,3.09-1.1,1.34,1.34,0,0,0,0-2.681,7.274,7.274,0,0,0-4.622,1.58,4.661,4.661,0,0,1-3.089,1.1,4.493,4.493,0,0,1-2.92-.987C26.58,16.857,37.077,6.2,40.211,3.183,44.385,7.2,61.656,24.778,61.656,40.21A21.415,21.415,0,0,1,25.914,56.156a7.669,7.669,0,0,0,3.165-1.443,4.662,4.662,0,0,1,3.09-1.1,1.34,1.34,0,1,0,0-2.681,7.274,7.274,0,0,0-4.622,1.58,4.886,4.886,0,0,1-6.179,0,7.275,7.275,0,0,0-4.622-1.58,7.262,7.262,0,0,0-4.618,1.58,4.657,4.657,0,0,1-3.088,1.1,4.655,4.655,0,0,1-3.084-1.1,7.253,7.253,0,0,0-4.615-1.581,1.34,1.34,0,1,0,0,2.681,4.655,4.655,0,0,1,3.084,1.1,7.253,7.253,0,0,0,4.615,1.581,7.266,7.266,0,0,0,4.619-1.581,4.887,4.887,0,0,1,6.178,0,9.192,9.192,0,0,0,2.006,1.114A24.111,24.111,0,0,0,64.336,40.21C64.336,21.567,42.058,1.2,41.11.348Z" transform="translate(-0.002)" fill="#3fb6b2"/>
      <path id="Trazado_906293" data-name="Trazado 906293" d="M1.342,344.019a4.656,4.656,0,0,1,3.084,1.1A7.253,7.253,0,0,0,9.041,346.7a1.34,1.34,0,1,0,0-2.681,4.656,4.656,0,0,1-3.084-1.1,7.253,7.253,0,0,0-4.615-1.581,1.34,1.34,0,1,0,0,2.681Z" transform="translate(-0.002 -298.448)" fill="#3fb6b2"/>
      <path id="Trazado_906294" data-name="Trazado 906294" d="M123.936,341.339a1.34,1.34,0,0,0,0,2.681,4.663,4.663,0,0,1,3.09,1.1,7.548,7.548,0,0,0,9.242,0,4.662,4.662,0,0,1,3.09-1.1,5.357,5.357,0,0,1,3.3,1.13A7.918,7.918,0,0,0,147.4,346.7a1.34,1.34,0,1,0,0-2.681,5.357,5.357,0,0,1-3.3-1.13,7.918,7.918,0,0,0-4.743-1.551,7.274,7.274,0,0,0-4.622,1.58,4.888,4.888,0,0,1-6.18,0A7.267,7.267,0,0,0,123.936,341.339Z" transform="translate(-107.192 -298.449)" fill="#3fb6b2"/>
      <path id="Trazado_906295" data-name="Trazado 906295" d="M16.747,277.339a7.262,7.262,0,0,0-4.618,1.58,4.657,4.657,0,0,1-3.088,1.1,4.656,4.656,0,0,1-3.084-1.1,7.253,7.253,0,0,0-4.615-1.581,1.34,1.34,0,1,0,0,2.681,4.655,4.655,0,0,1,3.084,1.1A7.253,7.253,0,0,0,9.041,282.7a7.266,7.266,0,0,0,4.619-1.581,4.663,4.663,0,0,1,3.086-1.1,1.34,1.34,0,1,0,0-2.681Z" transform="translate(-0.002 -242.491)" fill="#3fb6b2"/>
      <path id="Trazado_906296" data-name="Trazado 906296" d="M189.933,281.119a4.881,4.881,0,0,1,6.174,0,7.532,7.532,0,0,0,9.234,0,4.663,4.663,0,0,1,3.086-1.1,1.34,1.34,0,1,0,0-2.681,7.262,7.262,0,0,0-4.618,1.58,4.878,4.878,0,0,1-6.171,0,7.538,7.538,0,0,0-9.237,0,4.661,4.661,0,0,1-3.089,1.1,1.34,1.34,0,0,0,0,2.681A7.273,7.273,0,0,0,189.933,281.119Z" transform="translate(-160.856 -242.49)" fill="#3fb6b2"/>
    </g>
  </g>
</svg>
