<svg id="img09" xmlns="http://www.w3.org/2000/svg" width="65.61" height="67" viewBox="0 0 65.61 67">
  <path id="Trazado_906307" data-name="Trazado 906307" d="M30.792,18.773H28a9.771,9.771,0,0,1,18.983-3.261l-2.633.931a6.979,6.979,0,0,0-13.559,2.33Z" transform="translate(11.089 3.561)" fill="#3fb6b2"/>
  <path id="Trazado_906308" data-name="Trazado 906308" d="M37.613,25.771A9.786,9.786,0,0,1,28.4,19.254l2.633-.93A6.979,6.979,0,0,0,44.592,16h2.792a9.782,9.782,0,0,1-9.771,9.771Z" transform="translate(11.248 6.333)" fill="#3fb6b2"/>
  <path id="Trazado_906309" data-name="Trazado 906309" d="M34,4h2.792V9.583H34Z" transform="translate(13.464 1.583)" fill="#3fb6b2"/>
  <path id="Trazado_906310" data-name="Trazado 906310" d="M34,24h2.792v5.583H34Z" transform="translate(13.464 9.5)" fill="#3fb6b2"/>
  <path id="Trazado_906311" data-name="Trazado 906311" d="M43,15h5.583v2.792H43Z" transform="translate(17.027 5.937)" fill="#3fb6b2"/>
  <path id="Trazado_906312" data-name="Trazado 906312" d="M23,15h5.583v2.792H23Z" transform="translate(9.11 5.937)" fill="#3fb6b2"/>
  <path id="Trazado_906313" data-name="Trazado 906313" d="M0,0H5.583V2.792H0Z" transform="translate(55.763 13.455) rotate(-45)" fill="#3fb6b2"/>
  <path id="Trazado_906314" data-name="Trazado 906314" d="M0,0H5.583V2.792H0Z" transform="translate(36.023 33.191) rotate(-45)" fill="#3fb6b2"/>
  <path id="Trazado_906315" data-name="Trazado 906315" d="M0,0H2.792V5.583H0Z" transform="translate(55.76 31.219) rotate(-45)" fill="#3fb6b2"/>
  <path id="Trazado_906316" data-name="Trazado 906316" d="M0,0H2.792V5.583H0Z" transform="translate(36.024 11.479) rotate(-45)" fill="#3fb6b2"/>
  <path id="Trazado_906317" data-name="Trazado 906317" d="M4,22H6.792v2.792H4Z" transform="translate(1.589 8.708)" fill="#3fb6b2"/>
  <path id="Trazado_906318" data-name="Trazado 906318" d="M16.711,67A16.746,16.746,0,0,1,5.585,37.766V36.292H8.377v2.115a1.4,1.4,0,0,1-.507,1.076,13.958,13.958,0,1,0,17.764,0,1.4,1.4,0,0,1-.507-1.076V11.167a8.375,8.375,0,0,0-16.75,0v16.75H5.585V11.167a11.167,11.167,0,0,1,22.333,0v26.6A16.75,16.75,0,0,1,16.711,67Z" transform="translate(0.004)" fill="#3fb6b2"/>
  <path id="Trazado_906319" data-name="Trazado 906319" d="M15.562,61.626a12.556,12.556,0,0,1-6.979-23V9.98A6.979,6.979,0,0,1,22.321,8.236l-2.7.7A4.187,4.187,0,0,0,11.375,9.98V39.4a1.4,1.4,0,0,1-.7,1.207,9.771,9.771,0,1,0,9.771,0,1.4,1.4,0,0,1-.7-1.207V36.5h2.792V38.63a12.556,12.556,0,0,1-6.979,23Z" transform="translate(1.194 1.186)" fill="#3fb6b2"/>
  <path id="Trazado_906320" data-name="Trazado 906320" d="M13,8h8.375v2.792H13Z" transform="translate(5.152 3.167)" fill="#3fb6b2"/>
  <path id="Trazado_906321" data-name="Trazado 906321" d="M8,12H23.354v2.792H8Z" transform="translate(3.173 4.75)" fill="#3fb6b2"/>
  <path id="Trazado_906322" data-name="Trazado 906322" d="M13,16h8.375v2.792H13Z" transform="translate(5.152 6.333)" fill="#3fb6b2"/>
  <path id="Trazado_906323" data-name="Trazado 906323" d="M13,20h8.375v2.792H13Z" transform="translate(5.152 7.917)" fill="#3fb6b2"/>
  <path id="Trazado_906324" data-name="Trazado 906324" d="M13,24h8.375v2.792H13Z" transform="translate(5.152 9.5)" fill="#3fb6b2"/>
</svg>
